<svg width="261" height="260" viewBox="0 0 261 260" fill="none" xmlns="http://www.w3.org/2000/svg">
<g opacity="0.3">
<path d="M130.101 0C201.903 0 260.202 58.253 260.202 130C260.202 201.747 201.903 260 130.101 260C58.2982 260 0 201.747 0 130C0 58.253 58.2982 0 130.101 0Z" fill="#4BB1EA" fill-opacity="0.3"/>
</g>
<path d="M142.245 64.4051C141.81 64.0438 141.531 63.5286 141.468 62.9669C141.404 62.4052 141.56 61.8407 141.903 61.3913L154.561 44.8104C154.74 44.5755 154.965 44.3793 155.222 44.2336C155.479 44.0879 155.763 43.9954 156.057 43.9623C156.351 43.9289 156.648 43.9554 156.931 44.0398C157.215 44.1244 157.478 44.2652 157.705 44.4539L159.042 45.5636C159.269 45.7523 159.456 45.9852 159.591 46.2479C159.726 46.5108 159.807 46.7981 159.828 47.0927C159.849 47.3875 159.81 47.6832 159.714 47.9625C159.617 48.2418 159.465 48.4988 159.267 48.7179L145.273 64.189C144.894 64.6086 144.367 64.8653 143.803 64.9056C143.238 64.9459 142.68 64.7665 142.245 64.4051Z" fill="#036BCD"/>
<path d="M132.806 60.0707C132.454 59.9536 132.161 59.7051 131.988 59.3772C131.815 59.0492 131.776 58.6673 131.878 58.311L135.66 45.1692C135.714 44.983 135.804 44.8097 135.927 44.6594C136.049 44.5093 136.201 44.3853 136.372 44.2951C136.543 44.2049 136.731 44.1502 136.925 44.1344C137.118 44.1186 137.312 44.142 137.496 44.2032L138.577 44.5632C138.761 44.6243 138.931 44.7221 139.076 44.8506C139.221 44.9789 139.339 45.1353 139.422 45.3103C139.505 45.4853 139.552 45.6752 139.559 45.8689C139.567 46.0624 139.536 46.2554 139.467 46.4365L134.605 59.2183C134.473 59.565 134.212 59.8472 133.877 60.006C133.542 60.1649 133.158 60.1881 132.806 60.0707Z" fill="#036BCD"/>
<path d="M123.915 63.0123C122.783 63.3298 121.534 62.4532 121.081 61.025L113.054 35.668C112.575 34.1526 113.175 32.6101 114.376 32.2732L116.049 31.8037C117.249 31.4669 118.566 32.4721 118.946 34.015L125.3 59.8413C125.658 61.2963 125.047 62.6947 123.915 63.0123Z" fill="#036BCD"/>
<path d="M232.219 81.7672L204.196 80.7055C203.725 80.698 203.263 80.834 202.871 81.0957C202.48 81.3573 202.177 81.732 202.004 82.1697L195.956 97.3685L170.707 161.775C170.438 162.455 169.935 163.018 169.289 163.361C168.643 163.705 167.895 163.808 167.18 163.65L81.0719 144.53C80.8344 144.477 80.5877 144.482 80.3523 144.543C80.1168 144.604 79.8991 144.72 79.7173 144.881C79.5354 145.043 79.3945 145.245 79.3062 145.472C79.2181 145.698 79.1849 145.943 79.2095 146.185L79.5626 149.654C79.611 150.136 79.8106 150.591 80.1327 150.953C80.455 151.316 80.8835 151.567 81.3571 151.672L172.462 171.902C173.477 172.127 174.415 172.616 175.18 173.321C175.946 174.025 176.511 174.92 176.819 175.912L176.861 176.048C178.014 180.205 174.16 184.054 169.938 183.179L70.0351 160.957C69.5226 160.843 69.0642 160.559 68.7359 160.15C68.4074 159.741 68.2287 159.232 68.229 158.708L68.3141 75.1062C68.3136 74.6753 68.4036 74.249 68.5786 73.8554C68.7537 73.4614 69.0097 73.1087 69.3301 72.8201C69.6502 72.5315 70.0278 72.3135 70.4379 72.18C70.8479 72.0466 71.2815 72.0009 71.7105 72.0456L190.087 84.2581L196.23 68.7029C196.409 68.2629 196.717 67.888 197.116 67.629C197.514 67.3703 197.982 67.2395 198.457 67.2546L232.771 68.5261C233.075 68.5366 233.374 68.6076 233.65 68.7345C233.927 68.8614 234.177 69.0417 234.382 69.2653C234.589 69.489 234.749 69.7514 234.854 70.0371C234.959 70.323 235.005 70.6266 234.991 70.9307L234.607 79.5604C234.582 80.1689 234.315 80.7422 233.868 81.1555C233.421 81.5691 232.827 81.7889 232.219 81.7672Z" fill="#036BCD"/>
<path d="M78.0599 130.49L87.8117 132.655L92.7287 85.7661L77.9761 84.8503L78.0599 130.49Z" fill="#D3E7F7"/>
<path d="M154.571 147.479L164.323 149.644L184.159 95.8422L173.491 94.2601L154.571 147.479Z" fill="#D3E7F7"/>
<path d="M117.069 139.151L126.071 141.15L140.406 90.8458L125.82 89.1804L117.069 139.151Z" fill="#D3E7F7"/>
<path d="M101.147 86.8484L115.733 88.5138L107.316 136.985L97.5639 134.82L101.147 86.8484Z" fill="#D3E7F7"/>
<path d="M164.326 93.0111L149.74 91.3455L136.571 143.481L145.573 145.48L164.326 93.0111Z" fill="#D3E7F7"/>
<path d="M235.971 67.7733L206.405 66.7613C206.241 66.7556 206.104 66.8839 206.098 67.0476L205.608 81.3507C205.603 81.5144 205.732 81.6514 205.895 81.6571L235.461 82.6693C235.624 82.6751 235.761 82.5468 235.768 82.383L236.258 68.0799C236.264 67.9162 236.135 67.7788 235.971 67.7733Z" fill="#0081D2" fill-opacity="0.5"/>
<path d="M84.1232 195.245C90.1518 194.7 94.5964 189.375 94.0505 183.351C93.5046 177.327 88.175 172.886 82.1464 173.431C76.1176 173.976 71.673 179.302 72.219 185.327C72.7648 191.35 78.0944 195.791 84.1232 195.245Z" fill="#0081D2" fill-opacity="0.5"/>
<path d="M147.959 210.483C153.988 209.938 158.432 204.613 157.886 198.588C157.34 192.564 152.011 188.124 145.982 188.669C139.954 189.215 135.509 194.54 136.055 200.563C136.601 206.588 141.931 211.029 147.959 210.483Z" fill="#0081D2" fill-opacity="0.5"/>
</svg>
