<svg width="227" height="200" viewBox="0 0 227 200" fill="none" xmlns="http://www.w3.org/2000/svg">
<path fill-rule="evenodd" clip-rule="evenodd" d="M62.4667 57.0412H147.838V113.68H149.352V71.0589H154.463V72.5743H177.936L195.729 93.6009C197.588 95.897 198.32 97.2509 198.758 99.852V113.68L201.408 115.764C201.899 117.762 202.125 118.942 201.408 122.394C200.855 124.161 200.398 125.123 199.136 126.751C199.465 127.871 199.521 128.582 199.136 130.161C198.752 130.656 198.455 130.903 197.811 131.297C194.041 132.135 191.927 132.309 188.157 131.297L188.137 131.275C188.15 131.032 188.157 130.786 188.157 130.539C188.157 123.425 182.394 117.658 175.285 117.658C168.176 117.658 162.414 123.425 162.414 130.539C162.414 130.794 162.421 131.046 162.435 131.297H106.739C106.754 131.046 106.761 130.794 106.761 130.539C106.761 123.425 100.998 117.658 93.8894 117.658C92.139 117.658 90.4702 118.008 88.9489 118.641C89.1667 119.373 89.3973 120.098 89.6405 120.818C90.9413 120.248 92.3784 119.931 93.8894 119.931C99.7439 119.931 104.49 124.681 104.49 130.539C104.49 134.149 102.689 137.337 99.9366 139.253H71.9314C70.6769 139.253 69.6599 140.271 69.6599 141.526C69.6599 142.782 70.6769 143.799 71.9314 143.799H103.462C114.619 155.6 130.292 162.943 147.649 162.943C181.521 162.943 208.98 134.98 208.98 100.487C208.98 84.2423 201.408 69.5435 192.908 58.3372L147.838 0L107.274 52.495H62.4667C61.2122 52.495 60.1952 53.5127 60.1952 54.7681C60.1952 56.0235 61.2122 57.0412 62.4667 57.0412ZM175.285 141.147C181.14 141.147 185.886 136.398 185.886 130.539C185.886 124.681 181.14 119.931 175.285 119.931C169.431 119.931 164.685 124.681 164.685 130.539C164.685 136.398 169.431 141.147 175.285 141.147ZM175.285 132.813C176.54 132.813 177.557 131.795 177.557 130.539C177.557 129.284 176.54 128.266 175.285 128.266C174.031 128.266 173.014 129.284 173.014 130.539C173.014 131.795 174.031 132.813 175.285 132.813ZM94.9922 132.527C95.6893 132.139 96.1609 131.394 96.1609 130.539C96.1609 129.284 95.144 128.266 93.8894 128.266C93.5074 128.266 93.1474 128.361 92.8315 128.527C93.5049 129.89 94.2259 131.224 94.9922 132.527ZM156.735 99.852C156.317 99.852 155.978 100.191 155.978 100.61V102.125C155.978 102.544 156.317 102.883 156.735 102.883H163.549C163.967 102.883 164.306 102.544 164.306 102.125V100.61C164.306 100.191 163.967 99.852 163.549 99.852H156.735ZM191.309 120.703C192.463 121.871 195.149 123.473 196.661 120.529C198.172 117.585 194.977 116.786 193.19 116.755L191.309 120.703ZM154.274 77.8783V96.6317H181.532C181.34 93.4383 182.112 92.2066 184.372 90.57L174.15 77.8783H154.274ZM9.08607 80.5303C9.08607 79.2749 10.1031 78.2572 11.3576 78.2572H76.853C78.1075 78.2572 79.1245 79.2749 79.1245 80.5303C79.1245 81.7858 78.1075 82.8035 76.853 82.8035H11.3576C10.1031 82.8035 9.08607 81.7858 9.08607 80.5303ZM36.7229 89.244C36.7229 87.9886 37.7399 86.9709 38.9944 86.9709H98.0538C99.3084 86.9709 100.325 87.9886 100.325 89.244C100.325 90.4995 99.3084 91.5172 98.0538 91.5172H38.9944C37.7399 91.5172 36.7229 90.4995 36.7229 89.244ZM17.0364 89.244C17.0364 87.9886 18.0534 86.9709 19.3079 86.9709H31.4227C32.6772 86.9709 33.6942 87.9886 33.6942 89.244C33.6942 90.4995 32.6772 91.5172 31.4227 91.5172H19.3079C18.0534 91.5172 17.0364 90.4995 17.0364 89.244ZM60.1952 97.9577C60.1952 96.7023 61.2122 95.6846 62.4667 95.6846H74.5815C75.836 95.6846 76.853 96.7023 76.853 97.9577C76.853 99.2132 75.836 100.231 74.5815 100.231H62.4667C61.2122 100.231 60.1952 99.2132 60.1952 97.9577ZM25.3653 97.9577C25.3653 96.7023 26.3823 95.6846 27.6368 95.6846H54.1378C55.3924 95.6846 56.4093 96.7023 56.4093 97.9577C56.4093 99.2132 55.3924 100.231 54.1378 100.231H27.6368C26.3823 100.231 25.3653 99.2132 25.3653 97.9577ZM0 106.671C0 105.416 1.01699 104.398 2.27152 104.398H78.7459C80.0005 104.398 81.0175 105.416 81.0175 106.671C81.0175 107.927 80.0005 108.945 78.7459 108.945H2.27152C1.01699 108.945 0 107.927 0 106.671ZM38.2372 115.385C38.2372 114.13 39.2542 113.112 40.5087 113.112H83.289C84.5435 113.112 85.5605 114.13 85.5605 115.385C85.5605 116.641 84.5435 117.658 83.289 117.658H40.5087C39.2542 117.658 38.2372 116.641 38.2372 115.385ZM28.394 124.099C28.394 122.843 29.411 121.826 30.6655 121.826H72.6886C73.9431 121.826 74.9601 122.843 74.9601 124.099C74.9601 125.354 73.9431 126.372 72.6886 126.372H30.6655C29.411 126.372 28.394 125.354 28.394 124.099ZM42.0231 132.813C42.0231 131.557 43.0401 130.539 44.2946 130.539H83.289C84.5435 130.539 85.5605 131.557 85.5605 132.813C85.5605 134.068 84.5435 135.086 83.289 135.086H44.2946C43.0401 135.086 42.0231 134.068 42.0231 132.813ZM52.6235 69.5435C51.369 69.5435 50.352 70.5612 50.352 71.8166C50.352 73.0721 51.369 74.0898 52.6235 74.0898H96.5395C97.794 74.0898 98.811 73.0721 98.811 71.8166C98.811 70.5612 97.794 69.5435 96.5395 69.5435H52.6235ZM29.1511 69.5435C27.8966 69.5435 26.8796 70.5612 26.8796 71.8166C26.8796 73.0721 27.8966 74.0898 29.1511 74.0898H45.4303C46.6849 74.0898 47.7019 73.0721 47.7019 71.8166C47.7019 70.5612 46.6849 69.5435 45.4303 69.5435H29.1511ZM45.0518 60.8298C43.7972 60.8298 42.7802 61.8475 42.7802 63.1029C42.7802 64.3583 43.7972 65.3761 45.0518 65.3761H84.0461C85.3007 65.3761 86.3177 64.3583 86.3177 63.1029C86.3177 61.8475 85.3007 60.8298 84.0461 60.8298H45.0518ZM13.2505 115.385C13.2505 114.13 14.2675 113.112 15.522 113.112H32.937C34.1915 113.112 35.2085 114.13 35.2085 115.385C35.2085 116.641 34.1915 117.658 32.937 117.658H15.522C14.2675 117.658 13.2505 116.641 13.2505 115.385ZM94.1288 177.074C94.5264 176.736 94.9577 176.567 95.4226 176.567C95.8876 176.567 96.2717 176.712 96.575 177.003C96.8782 177.287 97.0298 177.69 97.0298 178.211C97.0298 178.732 96.8344 179.172 96.4436 179.53C96.0527 179.882 95.6046 180.058 95.0992 180.058C94.6005 180.058 94.2063 179.902 93.9165 179.591C93.6335 179.28 93.492 178.881 93.492 178.394C93.492 177.906 93.7042 177.467 94.1288 177.074ZM93.8559 184.493C93.8559 183.979 93.6773 183.674 93.3201 183.579C93.091 183.505 92.7676 183.451 92.3498 183.417C92.3026 183.214 92.279 183.062 92.279 182.96C92.279 182.852 92.2824 182.768 92.2891 182.707C93.2595 182.159 94.4758 181.885 95.9381 181.885C96.174 181.885 96.3492 181.888 96.4638 181.895C96.6525 182.193 96.7839 182.774 96.858 183.64C96.9119 184.033 96.9389 184.625 96.9389 185.416C96.9389 186.208 96.9119 188.617 96.858 192.642C96.11 192.771 95.4866 192.835 94.988 192.835C94.4961 192.835 94.0782 192.771 93.7346 192.642C93.8559 191.012 93.9165 189.554 93.9165 188.268C93.9165 186.976 93.8963 185.717 93.8559 184.493ZM73.6295 177.653L72.9118 177.643C71.8336 177.643 70.7419 177.687 69.6368 177.774C68.5384 177.862 67.7365 177.961 67.231 178.069V178.14C67.2176 178.201 67.2108 178.36 67.2108 178.617C67.2108 178.867 67.258 179.107 67.3523 179.337C67.6758 179.364 67.9016 179.469 68.0296 179.652C68.2924 180.051 68.4238 181.57 68.4238 184.209L68.3025 190.907C68.3025 191.15 68.316 191.377 68.3429 191.587C68.4305 192.304 68.6192 192.683 68.909 192.723C70.5061 192.947 71.9044 193.058 73.1039 193.058C77.5784 193.058 79.8157 191.539 79.8157 188.502C79.8157 187.507 79.5225 186.682 78.9363 186.025C78.35 185.362 77.6357 184.963 76.7933 184.828C77.3527 184.415 77.8143 183.897 78.1782 183.275C78.5488 182.653 78.7341 182.04 78.7341 181.438C78.7341 180.247 78.4005 179.354 77.7334 178.759C76.9652 178.069 75.5972 177.7 73.6295 177.653ZM71.3653 189.963L71.3855 189.253C71.4327 187.974 71.4562 186.935 71.4562 186.137C72.0021 186.076 72.5075 186.046 72.9725 186.046C75.4119 186.046 76.6316 186.908 76.6316 188.634C76.6316 189.513 76.3755 190.186 75.8634 190.653C75.6343 190.856 75.3546 191.022 75.0244 191.15C74.701 191.279 74.3741 191.367 74.0439 191.414C73.7205 191.462 73.3734 191.485 73.0028 191.485C72.6389 191.485 72.2312 191.462 71.7797 191.414C71.5034 191.238 71.3653 190.755 71.3653 189.963ZM75.9443 181.864C75.9443 182.697 75.6343 183.573 75.0143 184.493C74.6369 184.479 74.1854 184.473 73.6598 184.473C73.1342 184.473 72.3997 184.513 71.4562 184.594C71.4495 184.303 71.4428 183.877 71.436 183.316C71.436 182.754 71.4259 182.138 71.4057 181.469C71.3855 180.799 71.2979 180.102 71.1429 179.378C71.709 179.27 72.2548 179.216 72.7804 179.216C73.8653 179.216 74.6639 179.449 75.176 179.916C75.6882 180.383 75.9443 181.032 75.9443 181.864ZM88.0942 184.077C88.6199 184.077 88.8827 184.655 88.8827 185.812V185.934C89.004 185.954 89.1253 185.964 89.2466 185.964C89.8126 185.964 90.2944 185.782 90.692 185.416C91.0964 185.044 91.2985 184.581 91.2985 184.026C91.2985 183.302 91.093 182.754 90.6819 182.382C90.2776 182.003 89.7385 181.814 89.0646 181.814C88.7344 181.814 88.4211 181.871 88.1246 181.986C87.5046 182.223 86.7431 182.893 85.8401 183.996C85.8199 183.664 85.7896 183.316 85.7491 182.95C85.7155 182.585 85.6009 182.233 85.4055 181.895C85.2909 181.888 85.1157 181.885 84.8798 181.885C83.4512 181.885 82.2517 182.159 81.2813 182.707C81.2746 182.768 81.2712 182.852 81.2712 182.96C81.2712 183.062 81.2948 183.214 81.342 183.417C81.7531 183.451 82.0799 183.505 82.3225 183.579C82.6796 183.674 82.8582 183.979 82.8582 184.493V186.868C82.8582 189.594 82.8178 191.519 82.7369 192.642C83.0806 192.771 83.4883 192.835 83.96 192.835C84.4385 192.835 85.0517 192.771 85.7997 192.642C85.8401 188.441 85.8603 186.002 85.8603 185.325C86.2647 184.933 86.642 184.628 86.9924 184.412C87.3429 184.188 87.7101 184.077 88.0942 184.077ZM107.704 186.553L107.603 190.42C107.603 191.286 107.731 191.932 107.987 192.358C108.243 192.778 108.681 192.987 109.301 192.987C109.921 192.987 110.861 192.659 112.121 192.003C112.135 191.949 112.141 191.847 112.141 191.698C112.141 191.543 112.101 191.374 112.02 191.191C111.933 191.218 111.767 191.232 111.525 191.232C111.289 191.232 111.046 191.184 110.797 191.089C110.548 190.995 110.423 190.859 110.423 190.684C110.423 189.905 110.48 188.786 110.595 187.324C110.635 186.844 110.656 186.397 110.656 185.985C110.656 185.572 110.642 185.159 110.615 184.747C110.555 183.84 110.302 183.123 109.857 182.595C109.419 182.061 108.809 181.793 108.027 181.793C106.336 181.793 104.86 182.605 103.6 184.229C103.573 183.126 103.428 182.348 103.165 181.895C103.051 181.888 102.876 181.885 102.64 181.885C101.198 181.885 99.9915 182.159 99.0211 182.707C98.9942 182.795 98.9807 182.893 98.9807 183.001C98.9807 183.103 99.0009 183.241 99.0413 183.417C99.4591 183.451 99.7826 183.505 100.012 183.579C100.376 183.674 100.558 183.979 100.558 184.493C100.591 185.501 100.608 186.702 100.608 188.096C100.608 189.483 100.547 190.998 100.426 192.642C100.77 192.771 101.191 192.835 101.69 192.835C102.188 192.835 102.812 192.771 103.56 192.642C103.6 188.84 103.62 186.499 103.62 185.619C104.442 184.807 105.116 184.314 105.642 184.138C105.898 184.056 106.208 184.016 106.572 184.016C106.936 184.016 107.212 184.134 107.401 184.371C107.488 184.486 107.559 184.659 107.613 184.889C107.674 185.119 107.704 185.673 107.704 186.553ZM123.554 183.62C123.938 182.957 124.406 182.419 124.959 182.006C125.511 181.587 126.05 181.377 126.576 181.377C127.108 181.377 127.509 181.496 127.779 181.732C128.055 181.969 128.193 182.287 128.193 182.686C128.193 183.492 127.705 184.087 126.728 184.473C126.465 184.08 126.047 183.884 125.474 183.884C125.07 183.884 124.659 184.151 124.241 184.686C124.45 185.186 124.554 185.636 124.554 186.035C124.554 188.552 123.372 190.119 121.006 190.734C121.04 190.971 121.353 191.289 121.946 191.688C122.202 191.857 122.485 192.04 122.795 192.236C123.105 192.432 123.409 192.649 123.705 192.886C124.008 193.123 124.285 193.37 124.534 193.627C125.093 194.202 125.373 194.824 125.373 195.494C125.373 196.969 124.831 198.089 123.746 198.853C122.661 199.618 121.121 200 119.126 200C116.592 200 114.854 199.449 113.91 198.346C113.499 197.872 113.294 197.3 113.294 196.631C113.294 195.244 114.032 194.324 115.507 193.87C116.127 193.681 116.69 193.545 117.196 193.464C118.179 193.295 118.907 193.126 119.379 192.957C118.584 192.301 118.139 191.641 118.045 190.978C116.764 190.883 115.696 190.457 114.84 189.699C113.985 188.941 113.557 187.977 113.557 186.807C113.557 185.142 114.119 183.884 115.245 183.031C116.37 182.179 117.913 181.753 119.874 181.753C120.528 181.753 121.185 181.929 121.845 182.28C122.512 182.626 123.082 183.072 123.554 183.62ZM118.813 183.021C117.297 183.021 116.539 184.151 116.539 186.411C116.539 187.48 116.811 188.332 117.357 188.968C117.91 189.604 118.611 189.922 119.46 189.922C119.878 189.922 120.258 189.757 120.602 189.425C121.289 188.762 121.633 187.872 121.633 186.756C121.633 185.64 121.363 184.74 120.824 184.056C120.292 183.366 119.622 183.021 118.813 183.021ZM122.785 196.235C122.785 195.822 122.57 195.42 122.138 195.027C121.734 194.655 121.192 194.242 120.511 193.789C120.14 194.127 119.467 194.381 118.489 194.55C118.139 194.611 117.795 194.689 117.458 194.784C116.724 194.993 116.357 195.433 116.357 196.103C116.357 196.78 116.64 197.351 117.206 197.818C117.772 198.292 118.587 198.528 119.652 198.528C120.717 198.528 121.505 198.319 122.017 197.899C122.529 197.487 122.785 196.932 122.785 196.235ZM147.308 187.06C147.065 185.971 146.694 183.759 146.196 180.423C146.101 179.814 145.926 179.304 145.67 178.891C145.414 178.478 145.155 178.231 144.892 178.15C144.636 178.062 144.4 178.018 144.184 178.018C143.975 178.018 143.534 178.042 142.86 178.089C140.892 183.427 139.727 186.719 139.363 187.964C139.194 187.639 138.78 186.624 138.119 184.919C136.374 180.42 135.34 178.136 135.016 178.069C134.093 178.001 133.345 177.967 132.772 177.967C132.206 177.967 131.755 178.001 131.418 178.069C131.391 178.177 131.377 178.39 131.377 178.708C131.377 179.019 131.431 179.243 131.539 179.378C131.552 179.385 131.61 179.408 131.711 179.449C131.812 179.483 131.873 179.507 131.893 179.52C131.92 179.534 131.974 179.567 132.055 179.622C132.135 179.676 132.189 179.737 132.216 179.804C132.243 179.865 132.287 179.96 132.348 180.088C132.408 180.21 132.439 180.481 132.439 180.9C132.439 182.179 132.206 183.691 131.741 185.437C131.519 186.276 131.256 187.064 130.953 187.801C130.649 188.539 130.259 189.242 129.78 189.912C129.302 190.582 128.776 191.11 128.203 191.495C128.203 191.759 128.298 192.006 128.486 192.236C128.884 192.723 129.416 192.967 130.083 192.967C130.885 192.967 131.556 192.534 132.095 191.668C132.331 191.296 132.54 190.89 132.722 190.45C132.91 190.004 133.072 189.496 133.207 188.928C133.342 188.353 133.49 187.619 133.652 186.726C133.813 185.832 133.945 184.3 134.046 182.128L134.086 181.54C134.888 183.772 135.805 186.512 136.836 189.76C137.22 190.964 137.462 191.712 137.563 192.003C137.732 192.301 138.19 192.449 138.938 192.449C139.619 192.449 140.168 192.301 140.586 192.003V191.394C140.586 191.049 140.667 190.45 140.828 189.598C141.266 187.263 142.109 184.615 143.355 181.651C143.376 181.78 143.446 182.284 143.568 183.163C144.295 188.454 144.922 191.6 145.448 192.602C145.724 192.757 146.196 192.835 146.863 192.835C147.537 192.835 148.113 192.757 148.591 192.602C148.45 191.952 148.261 191.137 148.025 190.156C147.79 189.175 147.55 188.143 147.308 187.06ZM151.614 195.494C151.688 195.771 151.816 196.018 151.998 196.235C152.187 196.458 152.416 196.57 152.685 196.57C153.123 196.57 153.531 196.279 153.908 195.697C154.286 195.122 154.609 194.31 154.879 193.261C154.744 192.876 154.367 192.006 153.747 190.653C153.133 189.3 152.409 187.859 151.573 186.33C150.637 184.625 149.949 183.698 149.511 183.549C149.41 183.515 149.299 183.495 149.178 183.488C149.063 183.481 148.962 183.475 148.874 183.468C148.78 183.461 148.719 183.458 148.692 183.458C148.645 183.126 148.622 182.94 148.622 182.9C148.622 182.852 148.625 182.801 148.632 182.747C149.717 182.138 150.728 181.834 151.664 181.834C152.062 181.834 152.446 181.912 152.817 182.067C153.187 182.223 153.669 183.015 154.262 184.442C154.862 185.863 155.539 187.96 156.294 190.734C157.177 187.744 157.864 185.318 158.356 183.458C158.497 182.916 158.747 182.507 159.104 182.23C159.468 181.952 159.822 181.814 160.165 181.814C161.163 181.814 161.796 182.203 162.066 182.981C161.985 182.981 161.823 183.109 161.58 183.366C161.345 183.617 161.085 183.962 160.802 184.402C160.519 184.835 160.206 185.423 159.862 186.167C159.525 186.912 159.212 187.676 158.922 188.461C158.639 189.246 158.329 190.085 157.992 190.978C157.655 191.864 157.328 192.71 157.011 193.515C156.702 194.327 156.354 195.108 155.97 195.859C155.586 196.61 155.202 197.257 154.818 197.798C154.434 198.346 154.003 198.782 153.524 199.107C153.046 199.438 152.581 199.604 152.129 199.604C151.685 199.604 151.314 199.54 151.017 199.411C150.728 199.29 150.502 199.124 150.34 198.914C150.03 198.488 149.875 198.024 149.875 197.524C149.875 197.03 150.04 196.597 150.37 196.225C150.707 195.853 151.122 195.609 151.614 195.494ZM172.811 178.221C172.17 178.221 171.53 178.448 170.89 178.901C171.274 179.801 171.608 180.647 171.891 181.438C171.405 182.825 170.695 185.701 169.758 190.064C169.327 188.644 168.814 186.878 168.221 184.767C167.635 182.656 167.177 181.049 166.847 179.946C166.517 178.837 166.284 178.211 166.149 178.069C166.041 178.062 165.873 178.059 165.644 178.059C164.323 178.059 163.174 178.333 162.197 178.881C162.19 178.921 162.187 179.013 162.187 179.155C162.187 179.29 162.241 179.49 162.349 179.753C162.365 179.753 162.391 179.754 162.426 179.756C162.462 179.758 162.507 179.76 162.561 179.764L162.884 179.784C162.999 179.791 163.117 179.831 163.238 179.906C163.562 180.109 163.986 180.86 164.512 182.159C165.044 183.451 165.536 184.821 165.988 186.269C166.439 187.71 166.867 189.07 167.271 190.349C167.676 191.621 167.928 192.331 168.029 192.48C168.13 192.622 168.329 192.737 168.626 192.825C168.922 192.92 169.232 192.967 169.556 192.967C169.879 192.967 170.159 192.943 170.395 192.896C170.651 192.361 170.934 191.455 171.244 190.176C171.554 188.897 171.847 187.663 172.123 186.472C172.399 185.281 172.625 184.51 172.8 184.158C172.976 184.672 173.383 186.13 174.023 188.532C174.664 190.927 175.061 192.236 175.216 192.46C175.331 192.615 175.543 192.737 175.853 192.825C176.17 192.92 176.493 192.967 176.823 192.967C177.16 192.967 177.447 192.943 177.683 192.896L178.041 192.049L178.906 190.004C179.559 188.468 180.028 187.351 180.311 186.655C180.594 185.958 180.951 185.044 181.382 183.914C181.813 182.785 182.12 181.871 182.302 181.174C182.484 180.477 182.575 179.912 182.575 179.479C182.575 179.046 182.386 178.634 182.009 178.241C181.632 177.849 181.136 177.653 180.523 177.653C180.321 177.653 180.122 177.683 179.927 177.744C179.731 177.798 179.633 177.859 179.633 177.927C179.755 178.109 179.815 178.326 179.815 178.576C179.815 178.827 179.809 179.006 179.795 179.114C179.728 179.791 178.818 183.421 177.066 190.004C176.5 188.42 176.048 186.715 175.712 184.889C175.577 184.158 175.405 183.238 175.196 182.128C174.994 181.019 174.748 180.129 174.458 179.459C174.101 178.634 173.552 178.221 172.811 178.221ZM193.805 186.888L193.744 190.298V190.399C193.744 190.771 193.92 190.958 194.27 190.958C194.54 190.958 194.826 190.87 195.129 190.694C195.224 190.775 195.311 190.89 195.392 191.039C195.48 191.181 195.53 191.292 195.544 191.374C194.708 192.443 193.839 192.977 192.936 192.977C192.04 192.977 191.413 192.534 191.056 191.648C190.436 192.081 189.802 192.409 189.155 192.632C188.515 192.862 187.963 192.977 187.498 192.977C187.039 192.977 186.611 192.926 186.214 192.825C185.823 192.723 185.459 192.561 185.122 192.338C184.394 191.864 184.031 191.083 184.031 189.993C184.031 189.412 184.189 188.904 184.506 188.471C184.829 188.031 185.267 187.686 185.82 187.436C186.878 186.956 188.141 186.695 189.61 186.655L190.783 186.614C190.83 186.066 190.854 185.633 190.854 185.315C190.854 184.598 190.715 184.056 190.439 183.691C190.17 183.326 189.664 183.143 188.923 183.143C188.478 183.143 188.131 183.299 187.882 183.61C187.639 183.921 187.518 184.381 187.518 184.99C187.518 185.071 187.403 185.169 187.174 185.284C186.79 185.467 186.406 185.558 186.022 185.558C185.644 185.558 185.341 185.45 185.112 185.234C184.89 185.017 184.779 184.713 184.779 184.32C184.779 183.928 184.92 183.559 185.203 183.214C185.486 182.869 185.863 182.602 186.335 182.412C187.272 182.04 188.34 181.854 189.539 181.854C190.793 181.854 191.709 182.054 192.289 182.453C192.814 182.805 193.188 183.309 193.411 183.965C193.674 184.73 193.805 185.704 193.805 186.888ZM190.783 190.582C190.695 190.088 190.651 189.662 190.651 189.303C190.651 188.938 190.661 188.431 190.682 187.781L189.277 187.842C188.556 187.842 188 188.018 187.609 188.37C187.218 188.721 187.023 189.161 187.023 189.689C187.023 190.217 187.137 190.596 187.366 190.826C187.595 191.056 188.057 191.171 188.751 191.171C189.452 191.171 190.129 190.974 190.783 190.582ZM203.509 191.272C203.475 191.035 203.337 190.805 203.094 190.582C202.704 190.812 202.306 190.927 201.902 190.927C201.504 190.927 201.295 190.717 201.275 190.298C201.221 189.209 201.194 188.052 201.194 186.827C201.194 185.596 201.208 184.577 201.235 183.772C201.996 183.752 202.687 183.701 203.307 183.62C203.34 183.552 203.357 183.356 203.357 183.031C203.357 182.707 203.34 182.487 203.307 182.372C202.188 182.297 201.518 182.257 201.295 182.25C201.356 181.032 201.433 179.994 201.528 179.134C201.022 179.134 200.443 179.229 199.789 179.419C199.142 179.601 198.65 179.865 198.313 180.21C198.273 181.428 198.253 182.108 198.253 182.25L196.969 182.372C196.935 182.406 196.918 182.595 196.918 182.94C196.918 183.285 196.935 183.485 196.969 183.539C197.124 183.579 197.545 183.613 198.232 183.64C198.232 185.393 198.259 187.284 198.313 189.313C198.374 190.613 198.539 191.529 198.809 192.064C199.125 192.673 199.664 192.977 200.426 192.977C201.592 192.977 202.619 192.409 203.509 191.272ZM208.33 188.238C208.533 189.239 208.964 190.048 209.624 190.663C210.285 191.279 211.056 191.587 211.939 191.587C212.822 191.587 213.711 191.205 214.608 190.44C214.945 190.663 215.15 190.927 215.224 191.232C214.604 191.956 213.688 192.473 212.475 192.784C211.983 192.913 211.413 192.977 210.767 192.977C210.126 192.977 209.463 192.859 208.775 192.622C208.088 192.392 207.471 192.054 206.925 191.607C206.386 191.161 205.958 190.575 205.642 189.851C205.325 189.121 205.167 188.312 205.167 187.426C205.167 186.54 205.328 185.738 205.652 185.021C205.975 184.297 206.403 183.705 206.936 183.245C208.047 182.277 209.321 181.793 210.756 181.793C212.017 181.793 213.108 182.135 214.031 182.818C214.476 183.157 214.83 183.596 215.093 184.138C215.362 184.672 215.497 185.278 215.497 185.954C215.497 187.111 215.116 187.72 214.355 187.781L208.33 188.238ZM212.778 185.65C212.778 184.845 212.556 184.215 212.111 183.762C211.666 183.309 211.083 183.082 210.362 183.082C209.641 183.082 209.095 183.424 208.725 184.107C208.354 184.784 208.169 185.724 208.169 186.929C209.847 186.746 211.363 186.553 212.717 186.35C212.758 186.107 212.778 185.873 212.778 185.65ZM223.462 184.077C223.988 184.077 224.251 184.655 224.251 185.812V185.934C224.372 185.954 224.493 185.964 224.615 185.964C225.181 185.964 225.663 185.782 226.06 185.416C226.464 185.044 226.667 184.581 226.667 184.026C226.667 183.302 226.461 182.754 226.05 182.382C225.646 182.003 225.107 181.814 224.433 181.814C224.103 181.814 223.789 181.871 223.493 181.986C222.873 182.223 222.111 182.893 221.208 183.996C221.188 183.664 221.158 183.316 221.117 182.95C221.084 182.585 220.969 182.233 220.774 181.895C220.659 181.888 220.484 181.885 220.248 181.885C218.819 181.885 217.62 182.159 216.649 182.707C216.646 182.739 216.643 182.778 216.642 182.824C216.64 182.865 216.639 182.91 216.639 182.96C216.639 183.062 216.663 183.214 216.71 183.417C217.121 183.451 217.448 183.505 217.691 183.579C218.048 183.674 218.226 183.979 218.226 184.493V186.868C218.226 189.594 218.186 191.519 218.105 192.642C218.449 192.771 218.856 192.835 219.328 192.835C219.807 192.835 220.42 192.771 221.168 192.642C221.208 188.441 221.228 186.002 221.228 185.325C221.633 184.933 222.01 184.628 222.361 184.412C222.711 184.188 223.078 184.077 223.462 184.077Z" fill="#259DE0"/>
</svg>
