<svg width="98" height="76" viewBox="0 0 98 76" fill="none" xmlns="http://www.w3.org/2000/svg">
<path d="M81.8683 61.9466C82.4542 61.9466 82.9292 61.4719 82.9292 60.8864C82.9292 60.3008 82.4542 59.8261 81.8683 59.8261C81.2823 59.8261 80.8074 60.3008 80.8074 60.8864C80.8074 61.4719 81.2823 61.9466 81.8683 61.9466Z" fill="#259DE4"/>
<path fill-rule="evenodd" clip-rule="evenodd" d="M29.1755 26.6053H69.0487V53.0229H69.756V33.1434H72.1431V33.8502H83.106L91.4166 43.6575C92.2846 44.7284 92.6266 45.3599 92.8312 46.5731V53.0229L94.0689 53.9948C94.2985 54.9269 94.404 55.4773 94.0689 57.0872C93.8106 57.9113 93.5973 58.36 93.008 59.1193C93.1616 59.6419 93.1875 59.9733 93.008 60.7097C92.8285 60.9408 92.6898 61.0558 92.3891 61.2398C90.6283 61.6304 89.641 61.7116 87.8802 61.2398L87.8705 61.2297C87.877 61.1161 87.8802 61.0016 87.8802 60.8864C87.8802 57.5682 85.1886 54.8783 81.8683 54.8783C78.548 54.8783 75.8563 57.5682 75.8563 60.8864C75.8563 61.005 75.8598 61.1229 75.8666 61.2398H49.8534C49.8602 61.1229 49.8636 61.005 49.8636 60.8864C49.8636 57.5682 47.172 54.8783 43.8517 54.8783C43.0341 54.8783 42.2547 55.0414 41.5442 55.3368C41.6459 55.6779 41.7536 56.0164 41.8672 56.3521C42.4748 56.0861 43.146 55.9386 43.8517 55.9386C46.5861 55.9386 48.8027 58.1538 48.8027 60.8864C48.8027 62.5698 47.9614 64.0569 46.6761 64.9506H33.596C33.0101 64.9506 32.5351 65.4253 32.5351 66.0109C32.5351 66.5964 33.0101 67.0711 33.596 67.0711H48.3225C53.5335 72.5754 60.8536 76 68.9603 76C84.7805 76 97.6053 62.9577 97.6053 46.8692C97.6053 39.2924 94.0689 32.4366 90.0988 27.2097L69.0487 0L50.103 24.4848H29.1755C28.5896 24.4848 28.1146 24.9595 28.1146 25.545C28.1146 26.1306 28.5896 26.6053 29.1755 26.6053ZM81.8683 65.8342C84.6026 65.8342 86.8193 63.619 86.8193 60.8864C86.8193 58.1538 84.6026 55.9386 81.8683 55.9386C79.1339 55.9386 76.9173 58.1538 76.9173 60.8864C76.9173 63.619 79.1339 65.8342 81.8683 65.8342Z" fill="#259DE4"/>
<path d="M44.9126 60.8864C44.9126 61.2851 44.6923 61.6325 44.3668 61.8135C44.0088 61.2057 43.6721 60.5834 43.3576 59.9479C43.5051 59.8701 43.6733 59.8261 43.8517 59.8261C44.4376 59.8261 44.9126 60.3008 44.9126 60.8864Z" fill="#259DE4"/>
<path d="M73.204 46.5731C73.0087 46.5731 72.8504 46.7314 72.8504 46.9265V47.6334C72.8504 47.8285 73.0087 47.9868 73.204 47.9868H76.3868C76.5821 47.9868 76.7405 47.8285 76.7405 47.6334V46.9265C76.7405 46.7314 76.5821 46.5731 76.3868 46.5731H73.204Z" fill="#259DE4"/>
<path d="M91.8517 56.2172C91.1457 57.5903 89.8913 56.8434 89.3524 56.2983L90.2308 54.4571C91.0653 54.4717 92.5577 54.8442 91.8517 56.2172Z" fill="#259DE4"/>
<path d="M72.0547 36.3241V45.0711H84.7858C84.6962 43.5816 85.0567 43.0071 86.112 42.2438L81.3378 36.3241H72.0547Z" fill="#259DE4"/>
<path d="M5.30464 36.5008C4.7187 36.5008 4.24371 36.9755 4.24371 37.5611C4.24371 38.1466 4.7187 38.6213 5.30464 38.6213H35.8947C36.4807 38.6213 36.9556 38.1466 36.9556 37.5611C36.9556 36.9755 36.4807 36.5008 35.8947 36.5008H5.30464Z" fill="#259DE4"/>
<path d="M17.1517 41.6253C17.1517 41.0398 17.6267 40.5651 18.2126 40.5651H45.7967C46.3826 40.5651 46.8576 41.0398 46.8576 41.6253C46.8576 42.2109 46.3826 42.6856 45.7967 42.6856H18.2126C17.6267 42.6856 17.1517 42.2109 17.1517 41.6253Z" fill="#259DE4"/>
<path d="M9.01788 40.5651C8.43195 40.5651 7.95696 41.0398 7.95696 41.6253C7.95696 42.2109 8.43195 42.6856 9.01788 42.6856H14.6762C15.2621 42.6856 15.7371 42.2109 15.7371 41.6253C15.7371 41.0398 15.2621 40.5651 14.6762 40.5651H9.01788Z" fill="#259DE4"/>
<path d="M28.1146 45.6896C28.1146 45.104 28.5896 44.6293 29.1755 44.6293H34.8338C35.4197 44.6293 35.8947 45.104 35.8947 45.6896C35.8947 46.2751 35.4197 46.7498 34.8338 46.7498H29.1755C28.5896 46.7498 28.1146 46.2751 28.1146 45.6896Z" fill="#259DE4"/>
<path d="M12.908 44.6293C12.322 44.6293 11.847 45.104 11.847 45.6896C11.847 46.2751 12.322 46.7498 12.908 46.7498H25.2854C25.8714 46.7498 26.3464 46.2751 26.3464 45.6896C26.3464 45.104 25.8714 44.6293 25.2854 44.6293H12.908Z" fill="#259DE4"/>
<path d="M0 49.7538C0 49.1683 0.474993 48.6936 1.06093 48.6936H36.7788C37.3648 48.6936 37.8398 49.1683 37.8398 49.7538C37.8398 50.3394 37.3648 50.8141 36.7788 50.8141H1.06093C0.474993 50.8141 0 50.3394 0 49.7538Z" fill="#259DE4"/>
<path d="M18.9199 52.7579C18.3339 52.7579 17.8589 53.2325 17.8589 53.8181C17.8589 54.4037 18.3339 54.8783 18.9199 54.8783H38.9007C39.4866 54.8783 39.9616 54.4037 39.9616 53.8181C39.9616 53.2325 39.4866 52.7579 38.9007 52.7579H18.9199Z" fill="#259DE4"/>
<path d="M13.2616 57.8824C13.2616 57.2968 13.7366 56.8221 14.3225 56.8221H33.9497C34.5356 56.8221 35.0106 57.2968 35.0106 57.8824C35.0106 58.4679 34.5356 58.9426 33.9497 58.9426H14.3225C13.7366 58.9426 13.2616 58.4679 13.2616 57.8824Z" fill="#259DE4"/>
<path d="M20.6881 60.8864C20.1022 60.8864 19.6272 61.3611 19.6272 61.9466C19.6272 62.5322 20.1022 63.0069 20.6881 63.0069H38.9007C39.4866 63.0069 39.9616 62.5322 39.9616 61.9466C39.9616 61.3611 39.4866 60.8864 38.9007 60.8864H20.6881Z" fill="#259DE4"/>
<path d="M24.5782 32.4366C23.9922 32.4366 23.5172 32.9113 23.5172 33.4968C23.5172 34.0824 23.9922 34.5571 24.5782 34.5571H45.0894C45.6754 34.5571 46.1504 34.0824 46.1504 33.4968C46.1504 32.9113 45.6754 32.4366 45.0894 32.4366H24.5782Z" fill="#259DE4"/>
<path d="M12.5543 33.4968C12.5543 32.9113 13.0293 32.4366 13.6152 32.4366H21.2186C21.8045 32.4366 22.2795 32.9113 22.2795 33.4968C22.2795 34.0824 21.8045 34.5571 21.2186 34.5571H13.6152C13.0293 34.5571 12.5543 34.0824 12.5543 33.4968Z" fill="#259DE4"/>
<path d="M21.0417 28.3723C20.4558 28.3723 19.9808 28.847 19.9808 29.4326C19.9808 30.0181 20.4558 30.4928 21.0417 30.4928H39.2543C39.8403 30.4928 40.3153 30.0181 40.3153 29.4326C40.3153 28.847 39.8403 28.3723 39.2543 28.3723H21.0417Z" fill="#259DE4"/>
<path d="M7.24967 52.7579C6.66374 52.7579 6.18874 53.2325 6.18874 53.8181C6.18874 54.4037 6.66374 54.8783 7.24967 54.8783H15.3835C15.9694 54.8783 16.4444 54.4037 16.4444 53.8181C16.4444 53.2325 15.9694 52.7579 15.3835 52.7579H7.24967Z" fill="#259DE4"/>
</svg>
