<svg width="81" height="80" viewBox="0 0 81 80" fill="none" xmlns="http://www.w3.org/2000/svg">
<g clip-path="url(#clip0_39_5254)">
<path d="M14.9688 42.3438H19.6562V47.0312H14.9688V42.3438Z" fill="#036BCD"/>
<path d="M14.9688 61.0938H19.6562V65.7812H14.9688V61.0938Z" fill="#036BCD"/>
<path d="M38.5625 14.0625H51.2517L38.5625 1.37329V14.0625Z" fill="#036BCD"/>
<path d="M3.09375 80H50.2812C51.5767 80 52.625 78.9517 52.625 77.6562V74.1423C41.0325 70.8262 33.875 60.4053 33.875 49.375C33.875 38.3597 41.0184 27.9261 52.625 24.6073V18.75H36.2188C34.9233 18.75 33.875 17.7017 33.875 16.4062V0H3.09375C1.79828 0 0.75 1.04828 0.75 2.34375V77.6562C0.75 78.9517 1.79828 80 3.09375 80ZM10.2812 21.25C10.2812 19.9545 11.3295 18.9062 12.625 18.9062H22C23.2955 18.9062 24.3438 19.9545 24.3438 21.25V30.625C24.3438 31.9205 23.2955 32.9688 22 32.9688H12.625C11.3295 32.9688 10.2812 31.9205 10.2812 30.625V21.25ZM10.2812 40C10.2812 38.7045 11.3295 37.6562 12.625 37.6562H22C23.2955 37.6562 24.3438 38.7045 24.3438 40V49.375C24.3438 50.6705 23.2955 51.7188 22 51.7188H12.625C11.3295 51.7188 10.2812 50.6705 10.2812 49.375V40ZM10.2812 58.75C10.2812 57.4545 11.3295 56.4062 12.625 56.4062H22C23.2955 56.4062 24.3438 57.4545 24.3438 58.75V68.125C24.3438 69.4205 23.2955 70.4688 22 70.4688H12.625C11.3295 70.4688 10.2812 69.4205 10.2812 68.125V58.75Z" fill="#036BCD"/>
<path d="M14.9688 23.5938H19.6562V28.2812H14.9688V23.5938Z" fill="#036BCD"/>
<path d="M80.75 49.375C80.75 37.7433 71.288 28.2812 59.6562 28.2812C48.1642 28.2812 38.5625 37.6469 38.5625 49.375C38.5625 61.1303 48.1911 70.4688 59.6562 70.4688C71.288 70.4688 80.75 61.0067 80.75 49.375ZM59.6562 47.0312C63.5334 47.0312 66.6875 50.1853 66.6875 54.0625C66.6875 57.1141 64.7222 59.6912 62 60.662V63.4375C62 64.733 60.9517 65.7812 59.6562 65.7812C58.3608 65.7812 57.3125 64.733 57.3125 63.4375V61.0938H54.9688C53.6733 61.0938 52.625 60.0455 52.625 58.75C52.625 57.4545 53.6733 56.4062 54.9688 56.4062H59.6562C60.9494 56.4062 62 55.3556 62 54.0625C62 52.7694 60.9494 51.7188 59.6562 51.7188C55.7791 51.7188 52.625 48.5647 52.625 44.6875C52.625 41.6359 54.5903 39.0588 57.3125 38.088V35.3125C57.3125 34.017 58.3608 32.9688 59.6562 32.9688C60.9517 32.9688 62 34.017 62 35.3125V37.6562H64.3438C65.6392 37.6562 66.6875 38.7045 66.6875 40C66.6875 41.2955 65.6392 42.3438 64.3438 42.3438H59.6562C58.3631 42.3438 57.3125 43.3944 57.3125 44.6875C57.3125 45.9806 58.3631 47.0312 59.6562 47.0312Z" fill="#036BCD"/>
</g>
<defs>
<clipPath id="clip0_39_5254">
<rect width="80" height="80" fill="white" transform="translate(0.75)"/>
</clipPath>
</defs>
</svg>
