<svg width="81" height="80" viewBox="0 0 81 80" fill="none" xmlns="http://www.w3.org/2000/svg">
<g clip-path="url(#clip0_39_5252)">
<path fill-rule="evenodd" clip-rule="evenodd" d="M57.5312 16.7212C64.4673 18.3307 67.1205 22.3865 70.4469 27.9688H57.5312V16.7212ZM16.9966 28.4375C18.3546 28.4375 19.3403 29.093 19.3403 30.625C19.3403 31.9171 18.2948 32.9651 17.0033 32.9688H2.84375C1.54919 32.9688 0.5 34.0186 0.5 35.3125C0.5 36.6071 1.54919 37.6562 2.84375 37.6562H23.9375C25.2443 37.6562 26.2904 38.7048 26.2904 40C26.2904 41.2946 25.2412 42.3438 23.9467 42.3438H2.84375C1.54919 42.3438 0.5 43.3929 0.5 44.6875C0.5 45.9821 1.54919 47.0312 2.84375 47.0312H8V54.0625C8 55.3571 9.04919 56.4062 10.3438 56.4062H15.0551C15.8949 60.5432 19.5503 63.5938 23.8594 63.5938C28.1685 63.5938 31.8239 60.5432 32.6637 56.4062H56.4613C57.3011 60.5432 60.9565 63.5938 65.2656 63.5938C69.5747 63.5938 73.2301 60.5432 74.0699 56.4062H78.1562C79.4508 56.4062 80.5 55.3571 80.5 54.0625V40C80.5 33.1232 73.2466 32.6666 73.2399 32.6562H55.1875C53.8929 32.6562 52.8438 31.6071 52.8438 30.3125V16.25H10.3438C9.04919 16.25 8 17.2992 8 18.5938V23.75H5.1875C3.89294 23.75 2.84375 24.7992 2.84375 26.0938C2.84375 27.3883 3.89294 28.4375 5.1875 28.4375H16.9966ZM68.304 51.571C69.9818 53.2489 69.9818 55.9705 68.304 57.6483C65.605 60.3473 60.9688 58.4271 60.9688 54.6094C60.9688 50.7922 65.605 48.8721 68.304 51.571ZM26.8977 51.571C28.5756 53.2489 28.5756 55.9705 26.8977 57.6483C24.1987 60.3473 19.5625 58.4271 19.5625 54.6094C19.5625 50.7922 24.1987 48.8721 26.8977 51.571Z" fill="#036BCD"/>
</g>
<defs>
<clipPath id="clip0_39_5252">
<rect width="80" height="80" fill="white" transform="translate(0.5)"/>
</clipPath>
</defs>
</svg>
