<svg width="81" height="80" viewBox="0 0 81 80" fill="none" xmlns="http://www.w3.org/2000/svg">
<g clip-path="url(#clip0_2004_3860)">
<path d="M48.6094 33.9453C51.5218 33.9453 53.8828 31.5843 53.8828 28.6719C53.8828 25.7594 51.5218 23.3984 48.6094 23.3984C45.6969 23.3984 43.3359 25.7594 43.3359 28.6719C43.3359 31.5843 45.6969 33.9453 48.6094 33.9453Z" fill="#036BCD"/>
<path d="M71.6562 9.53125H8.84375C4.10516 9.53125 0.25 13.3864 0.25 18.125V61.875C0.25 66.6136 4.10516 70.4688 8.84375 70.4688H71.6562C76.3948 70.4688 80.25 66.6136 80.25 61.875V18.125C80.25 13.3864 76.3948 9.53125 71.6562 9.53125ZM23.7781 49.4372C24.7489 49.4372 25.5359 50.2242 25.5359 51.195C25.5359 52.1658 24.7489 52.9528 23.7781 52.9528H20.2891V58.3594C20.2891 59.3302 19.502 60.1172 18.5312 60.1172C17.5605 60.1172 16.7734 59.3302 16.7734 58.3594V44.2969C16.7734 43.3261 17.5605 42.5391 18.5312 42.5391H24.2309C25.2017 42.5391 25.9888 43.3261 25.9888 44.2969C25.9888 45.2677 25.2017 46.0547 24.2309 46.0547H20.2891V49.4372H23.7781ZM27.8672 35.7031C27.8672 36.6739 27.0802 37.4609 26.1094 37.4609C25.1386 37.4609 24.3516 36.6739 24.3516 35.7031V21.6669C24.3516 20.8975 24.8519 20.2177 25.5862 19.9888C26.3208 19.7598 27.1188 20.035 27.5558 20.668L34.1573 30.2273L34.0744 21.6577C34.065 20.6869 34.8444 19.8923 35.8152 19.883H35.8325C36.7955 19.883 37.5806 20.6587 37.5898 21.6237L37.7212 35.2123V35.2294C37.7212 36.1769 37.1825 36.9575 36.3488 37.2178C35.532 37.4733 34.6703 37.1556 34.1537 36.4092L27.867 27.3058V35.7031H27.8672ZM35.5883 49.5703C36.5591 49.5703 37.3461 50.3573 37.3461 51.3281C37.3461 52.2989 36.5591 53.0859 35.5883 53.0859H31.8577V56.6016H36.0252C36.9959 56.6016 37.783 57.3886 37.783 58.3594C37.783 59.3302 36.9959 60.1172 36.0252 60.1172H30.0998C29.1291 60.1172 28.342 59.3302 28.342 58.3594V44.2969C28.342 43.3261 29.1291 42.5391 30.0998 42.5391H36.0252C36.9959 42.5391 37.783 43.3261 37.783 44.2969C37.783 45.2677 36.9959 46.0547 36.0252 46.0547H31.8577V49.5703H35.5883ZM48.6094 19.8828C53.4558 19.8828 57.3984 23.8256 57.3984 28.6719C57.3984 33.5181 53.4558 37.4609 48.6094 37.4609C43.763 37.4609 39.8203 33.5181 39.8203 28.6719C39.8203 23.8256 43.763 19.8828 48.6094 19.8828ZM47.307 49.5703C48.2778 49.5703 49.0648 50.3573 49.0648 51.3281C49.0648 52.2989 48.2778 53.0859 47.307 53.0859H43.5764V56.6016H47.7439C48.7147 56.6016 49.5017 57.3886 49.5017 58.3594C49.5017 59.3302 48.7147 60.1172 47.7439 60.1172H41.8186C40.8478 60.1172 40.0608 59.3302 40.0608 58.3594V44.2969C40.0608 43.3261 40.8478 42.5391 41.8186 42.5391H47.7439C48.7147 42.5391 49.5017 43.3261 49.5017 44.2969C49.5017 45.2677 48.7147 46.0547 47.7439 46.0547H43.5764V49.5703H47.307ZM63.6547 55.6206C63.1894 58.2261 60.7009 60.1172 57.7373 60.1172C55.3638 60.1172 53.0448 59.122 51.5344 57.4552C50.8823 56.7358 50.9372 55.6241 51.6564 54.9722C52.3758 54.3205 53.4877 54.3748 54.1394 55.0944C54.9947 56.0381 56.3397 56.6014 57.7373 56.6014C59.0963 56.6014 60.0534 55.7884 60.1939 55.0025C60.3805 53.9572 58.9667 53.3155 58.35 53.088C56.1691 52.2834 54.2325 51.4214 54.1512 51.3852C54.0666 51.3473 53.9852 51.303 53.9073 51.2523C52.4245 50.2856 51.6605 48.5903 51.9134 46.8278C52.1831 44.9494 53.5566 43.4192 55.4978 42.8344C59.3395 41.6772 62.502 44.285 62.635 44.3966C63.3781 45.0213 63.4741 46.13 62.8494 46.8733C62.2275 47.6136 61.1248 47.7117 60.3819 47.0953C60.3289 47.0528 58.4927 45.6037 56.5119 46.2006C55.6092 46.4725 55.4289 47.0792 55.3933 47.3273C55.3677 47.5061 55.3548 47.9347 55.7375 48.2423C56.2311 48.4584 57.8392 49.1523 59.5666 49.7895C63.1147 51.0984 64.0047 53.6598 63.6547 55.6206Z" fill="#036BCD"/>
</g>
<defs>
<clipPath id="clip0_2004_3860">
<rect width="80" height="80" fill="white" transform="translate(0.25)"/>
</clipPath>
</defs>
</svg>
