<svg width="24" height="24" viewBox="0 0 24 24" fill="none" xmlns="http://www.w3.org/2000/svg">
<path d="M22.0311 10.875L19.8951 7.33201C19.7385 7.07499 19.5187 6.86233 19.2566 6.71425C18.9946 6.56617 18.6991 6.4876 18.3981 6.48601H16.7211V6.23701C16.7211 5.87742 16.6501 5.52136 16.5121 5.1893C16.3742 4.85723 16.1719 4.55569 15.9171 4.30201C15.402 3.78847 14.7044 3.50007 13.9771 3.50001H3.99409C3.45081 3.49668 2.91887 3.6554 2.46625 3.9559C2.01363 4.2564 1.66089 4.68503 1.45309 5.18701C1.316 5.51998 1.24665 5.87693 1.24909 6.23701V15.195C1.24944 15.6158 1.40234 16.0222 1.67945 16.3388C1.95656 16.6554 2.33907 16.8609 2.75609 16.917C2.75109 17.007 2.75109 17.097 2.75609 17.186C2.75236 17.6102 2.83441 18.0307 2.99732 18.4223C3.16023 18.814 3.40064 19.1686 3.70409 19.465C4.00179 19.7747 4.35806 20.0221 4.75222 20.193C5.14637 20.3638 5.57055 20.4545 6.00009 20.46C6.85745 20.4523 7.6777 20.1092 8.28509 19.504C8.89198 18.8999 9.23682 18.0813 9.24509 17.225C9.25003 17.1424 9.25003 17.0596 9.24509 16.977H14.7541C14.7491 17.0596 14.7491 17.1424 14.7541 17.225C14.7502 17.6493 14.8321 18.0701 14.995 18.4619C15.158 18.8537 15.3985 19.2085 15.7021 19.505C16 19.815 16.3566 20.0626 16.7511 20.2334C17.1456 20.4042 17.5702 20.4949 18.0001 20.5C18.8575 20.4924 19.6778 20.1493 20.2851 19.544C20.8916 18.9397 21.2361 18.1211 21.2441 17.265C21.2491 17.1821 21.2491 17.0989 21.2441 17.016H22.0001C22.1973 17.0132 22.3858 16.9338 22.5255 16.7946C22.6653 16.6553 22.7455 16.4672 22.7491 16.27V13.394C22.7491 12.504 22.5001 11.632 22.0311 10.875ZM7.73709 17.185C7.73807 17.4137 7.69258 17.6402 7.60336 17.8508C7.51414 18.0614 7.38307 18.2516 7.21809 18.41C6.8854 18.7261 6.44401 18.9024 5.98509 18.9024C5.52616 18.9024 5.08477 18.7261 4.75209 18.41C4.59002 18.2481 4.46167 18.0557 4.37447 17.8439C4.28727 17.6321 4.24295 17.4051 4.24409 17.176C4.23965 16.9395 4.28745 16.7049 4.38409 16.489C4.51609 16.176 4.74309 15.912 5.03209 15.732C5.32767 15.5366 5.67586 15.4362 6.03009 15.444C6.36809 15.444 6.69809 15.544 6.97809 15.732C7.26509 15.915 7.49109 16.178 7.62809 16.489C7.72609 16.704 7.77809 16.939 7.77709 17.176L7.73709 17.185ZM10.9811 12.209H5.99109C5.72691 12.2087 5.47356 12.104 5.28639 11.9175C5.09921 11.7311 4.99341 11.4782 4.99209 11.214C4.99182 11.083 5.01747 10.9532 5.06755 10.8321C5.11764 10.711 5.19117 10.601 5.28392 10.5084C5.37668 10.4159 5.48682 10.3425 5.60801 10.2927C5.7292 10.2429 5.85905 10.2175 5.99009 10.218H10.9811C11.2453 10.2185 11.4985 10.3236 11.6855 10.5102C11.8725 10.6968 11.978 10.9498 11.9791 11.214C11.9792 11.345 11.9535 11.4747 11.9033 11.5956C11.8532 11.7166 11.7796 11.8265 11.6869 11.9189C11.5942 12.0114 11.4841 12.0846 11.3629 12.1344C11.2418 12.1842 11.112 12.2095 10.9811 12.209ZM10.9811 8.78501H5.99109C5.72691 8.78474 5.47356 8.67996 5.28639 8.49353C5.09921 8.3071 4.99341 8.05418 4.99209 7.79001C4.99195 7.65905 5.0177 7.52936 5.06784 7.40838C5.11799 7.28741 5.19154 7.17754 5.28428 7.08508C5.37702 6.99262 5.48711 6.91939 5.60824 6.86961C5.72936 6.81983 5.85913 6.79448 5.99009 6.79501H10.9811C11.2451 6.79553 11.4982 6.90043 11.6851 7.08683C11.8721 7.27323 11.9778 7.526 11.9791 7.79001C11.9792 7.92096 11.9535 8.05065 11.9033 8.17163C11.8532 8.2926 11.7796 8.40247 11.6869 8.49494C11.5942 8.5874 11.4841 8.66062 11.3629 8.7104C11.2418 8.76018 11.112 8.78553 10.9811 8.78501ZM19.7151 17.185C19.716 17.4138 19.6704 17.6404 19.581 17.8509C19.4916 18.0615 19.3603 18.2517 19.1951 18.41C18.8625 18.7258 18.4213 18.9019 17.9626 18.9019C17.5039 18.9019 17.0627 18.7258 16.7301 18.41C16.5678 18.2482 16.4393 18.0558 16.3519 17.844C16.2646 17.6322 16.2201 17.4051 16.2211 17.176C16.2168 16.8134 16.3329 16.4596 16.5511 16.17C16.7971 15.843 17.1501 15.61 17.5491 15.513H17.7991C17.8449 15.5028 17.8923 15.5028 17.9381 15.513H18.1381C18.4411 15.548 18.7301 15.661 18.9761 15.842C19.2231 16.023 19.4161 16.267 19.5351 16.549C19.6341 16.764 19.6851 16.999 19.6851 17.235L19.7151 17.185Z" fill="#036BCD" fill-opacity="0.8"/>
<path d="M17.9598 15.434C17.9137 15.4236 17.8659 15.4236 17.8198 15.434H17.9598Z" fill="#036BCD" fill-opacity="0.8"/>
</svg>
