<svg width="24" height="24" viewBox="0 0 24 24" fill="none" xmlns="http://www.w3.org/2000/svg">
<path d="M20.9351 3.52101C20.8604 3.27679 20.7343 3.05138 20.5653 2.85992C20.3962 2.66847 20.1882 2.51541 19.9551 2.41101C19.7236 2.30273 19.4707 2.24804 19.2151 2.25101H4.82512C4.56967 2.23664 4.31482 2.2883 4.08512 2.40101C3.84696 2.50657 3.6352 2.66368 3.46512 2.86101C3.29617 3.05213 3.17002 3.27716 3.09512 3.52101C3.01762 3.76296 2.99374 4.01889 3.02512 4.27101L4.66512 18.271C4.77512 19.229 5.23512 20.111 5.95512 20.751C6.65893 21.3902 7.57437 21.7464 8.52512 21.751H15.5251C16.479 21.747 17.3977 21.3909 18.1051 20.751C18.8157 20.1048 19.27 19.2245 19.3851 18.271L20.2751 10.401V10.281L20.9651 4.28101C21.0038 4.02809 20.9936 3.77009 20.9351 3.52101ZM10.8351 18.871H9.83512C9.18734 18.835 8.57071 18.5813 8.08512 18.151C7.60127 17.715 7.28326 17.1249 7.18512 16.481L6.94512 14.761C6.91432 14.4988 6.98739 14.235 7.14871 14.026C7.31002 13.817 7.54674 13.6795 7.80819 13.6429C8.06964 13.6063 8.33502 13.6735 8.54752 13.8302C8.76002 13.9868 8.90274 14.2204 8.94512 14.481L9.18512 16.181C9.212 16.3668 9.30417 16.537 9.44512 16.661C9.58486 16.7892 9.7656 16.8637 9.95512 16.871H10.9551C11.2203 16.871 11.4747 16.9764 11.6622 17.1639C11.8498 17.3514 11.9551 17.6058 11.9551 17.871C11.9551 18.1362 11.8498 18.3906 11.6622 18.5781C11.4747 18.7656 11.2203 18.871 10.9551 18.871H10.8351ZM18.8351 9.64101C16.7251 10.051 14.9251 10.131 13.0151 8.64101C10.6451 6.77101 7.77512 7.37101 5.01512 8.35101L4.51512 4.11101C4.50529 4.06823 4.50529 4.02378 4.51512 3.98101C4.52873 3.93899 4.55283 3.90113 4.58512 3.87101C4.60879 3.8341 4.64392 3.80599 4.68512 3.79101C4.72435 3.77989 4.7659 3.77989 4.80512 3.79101H19.3251C19.3626 3.81198 19.3964 3.83901 19.4251 3.87101C19.4551 3.90101 19.4751 3.94001 19.4851 3.98101C19.5004 4.02643 19.5004 4.07559 19.4851 4.12101L18.8351 9.64101Z" fill="#036BCD" fill-opacity="0.8"/>
</svg>
